<?xml version="1.0" standalone="no"?>
<!DOCTYPE svg PUBLIC "-//W3C//DTD SVG 20010904//EN"
 "http://www.w3.org/TR/2001/REC-SVG-20010904/DTD/svg10.dtd">
<svg version="1.0" xmlns="http://www.w3.org/2000/svg"
 width="651.000000pt" height="651.000000pt" viewBox="0 0 651.000000 651.000000"
 preserveAspectRatio="xMidYMid meet">
<metadata>
Created by potrace 1.14, written by Peter Selinger 2001-2017
</metadata>
<g transform="translate(0.000000,651.000000) scale(0.100000,-0.100000)"
fill="#000000" stroke="none">
<path d="M3137 5859 c-219 -18 -483 -77 -693 -154 -251 -92 -558 -270 -764
-443 -118 -99 -304 -290 -391 -402 -729 -937 -743 -2239 -35 -3188 371 -496
919 -854 1511 -987 232 -52 303 -59 585 -60 303 0 405 12 656 75 193 49 311
93 509 190 738 360 1262 1047 1419 1859 164 851 -106 1734 -719 2346 -213 213
-426 365 -700 500 -433 214 -900 304 -1378 264z m388 -2124 c203 -53 369 -219
420 -420 19 -75 19 -223 0 -295 -50 -189 -205 -350 -395 -411 -91 -30 -249
-30 -340 -1 -170 55 -319 195 -380 360 -119 316 71 679 400 766 74 20 221 20
295 1z m-946 -814 c150 -456 639 -701 1097 -549 274 90 491 323 564 606 l11
42 814 0 815 0 0 -39 c0 -59 -37 -262 -70 -388 -183 -687 -649 -1269 -1280
-1597 -269 -139 -535 -223 -855 -268 -119 -17 -512 -17 -635 0 -562 79 -1043
312 -1439 697 -218 213 -367 412 -497 668 -138 270 -236 594 -260 857 l-7 70
855 0 855 0 32 -99z"/>
</g>
</svg>
